<?xml version="1.0" standalone="no"?><!DOCTYPE svg PUBLIC "-//W3C//DTD SVG 1.1//EN" "http://www.w3.org/Graphics/SVG/1.1/DTD/svg11.dtd"><svg t="1502632502955" class="icon" style="" viewBox="0 0 1024 1024" version="1.1" xmlns="http://www.w3.org/2000/svg" p-id="1024" xmlns:xlink="http://www.w3.org/1999/xlink" width="16" height="16"><defs><style type="text/css"></style></defs><path d="M112.19478 815.637462 76.048535 815.637462 76.048535 182.072779c0-36.680411 29.764907-66.979484 66.978461-66.979484l280.640702 0c37.20332 0 67.502393 30.29805 67.502393 66.979484l0 51.55826-36.680411 0 0-51.55826c0-16.4783-13.811564-30.29805-30.821983-30.29805L143.026996 151.774729c-17.011442 0-30.832216 13.81975-30.832216 30.29805L112.19478 815.637462zM875.993596 395.743206c-10.105149 0-18.078751-7.972579-18.078751-18.078751l0-90.885963c0-17.011442-13.820774-30.29805-30.821983-30.29805l-354.524432 0c-10.106172 0-18.078751-8.505721-18.078751-18.60166 0-10.096962 7.972579-18.068518 18.078751-18.068518l355.058598 0c36.670178 0 66.967204 29.764907 66.967204 66.969251l0 90.885963C894.595256 387.770628 886.089535 395.743206 875.993596 395.743206L875.993596 395.743206zM822.30072 885.806591 141.427568 885.806591c-36.147268 0-65.379033-30.29805-65.379033-66.979484l0-3.713578 70.15992-390.671701c1.066285-36.146245 30.29805-64.844867 65.379033-64.844867l681.408341 0c36.148291 0 65.380056 29.764907 65.380056 66.968228 0 1.068332 0 2.124384-0.534166 3.191692L887.680776 820.427558C886.623701 856.565617 857.914846 885.806591 822.30072 885.806591L822.30072 885.806591zM112.728946 819.894416c0.533143 16.4783 13.286608 29.231765 28.698622 29.231765l680.874175 0c15.954367 0 28.708855-13.820774 28.708855-30.299073 0-1.056052 0.533143-2.657526 0.533143-3.713578l70.160943-390.138558c-0.533143-15.945157-13.287631-29.230742-28.708855-29.230742L211.587488 395.744229c-15.945157 0-28.698622 13.81975-28.698622 30.821983l0 3.191692L112.728946 819.894416z" p-id="1025" fill="#1afa29"></path></svg>